<?xml version="1.0" encoding="UTF-8" standalone="no"?>
<svg
   width="24"
   height="24"
   viewBox="0 0 24 24"
   fill="none"
   stroke="#ffffff"
   stroke-width="2"
   stroke-linecap="round"
   stroke-linejoin="round"
   class="feather feather-flag"
   version="1.1"
   id="svg1719"
   sodipodi:docname="flag.svg"
   xmlns:inkscape="http://www.inkscape.org/namespaces/inkscape"
   xmlns:sodipodi="http://sodipodi.sourceforge.net/DTD/sodipodi-0.dtd"
   xmlns="http://www.w3.org/2000/svg"
   xmlns:svg="http://www.w3.org/2000/svg">
  <defs
     id="defs1723" />
  <sodipodi:namedview
     id="namedview1721"
     pagecolor="#505050"
     bordercolor="#eeeeee"
     borderopacity="1"
     inkscape:showpageshadow="0"
     inkscape:pageopacity="0"
     inkscape:pagecheckerboard="0"
     inkscape:deskcolor="#505050"
     showgrid="false" />
  <path
     d="m 4,15 c 0,0 1,-1 4,-1 3,0 5,2 8,2 3,0 4,-1 4,-1 V 3 C 20,3 19,4 16,4 13,4 11,2 8,2 5,2 4,3 4,3 Z"
     id="path1715" />
  <line
     x1="4"
     y1="22"
     x2="4"
     y2="15"
     id="line1717" />
  <path
     style="fill:#cc3333;fill-opacity:1;stroke-width:0.0551091"
     d="m 15.210103,14.933507 c -0.383219,-0.05325 -1.102293,-0.233598 -1.552265,-0.389319 -0.199526,-0.06905 -0.691363,-0.255529 -1.09297,-0.414398 -1.795277,-0.710181 -2.480164,-0.919445 -3.5132032,-1.073441 -0.4057232,-0.06048 -1.7984709,-0.06958 -2.3008037,-0.01503 -0.5793463,0.06292 -1.442747,0.228449 -1.6877153,0.323575 -0.045814,0.01779 -0.04822,-0.226704 -0.04822,-4.8993146 V 3.5475441 L 5.1595867,3.485134 C 5.8109288,3.2041304 6.6327302,3.0540375 7.6772774,3.0253058 c 0.648014,-0.017825 1.0090861,0.010339 1.5397146,0.1200986 0.6954122,0.1438445 1.14652,0.2965385 2.755453,0.9326852 1.792174,0.7085969 2.750743,0.9233429 4.119235,0.9228228 0.955171,-3.629e-4 1.743929,-0.086675 2.486965,-0.2721429 l 0.40643,-0.101448 v 4.9128634 4.9128641 l -0.154063,0.06813 c -0.352034,0.155687 -0.833557,0.281131 -1.432427,0.37317 -0.508994,0.07823 -1.747791,0.100391 -2.188482,0.03916 z"
     id="path2207" />
</svg>
