<?xml version="1.0" encoding="UTF-8" standalone="no"?>
<svg
   width="24"
   height="24"
   viewBox="0 0 24 24"
   fill="none"
   stroke="#ffffff"
   stroke-width="2"
   stroke-linecap="round"
   stroke-linejoin="round"
   class="feather feather-plus-square"
   version="1.1"
   id="svg20"
   xmlns="http://www.w3.org/2000/svg"
   xmlns:svg="http://www.w3.org/2000/svg">
  <defs
     id="defs24" />
  <rect
     x="3"
     y="3"
     width="18"
     height="18"
     rx="2"
     ry="2"
     id="rect14" />
  <line
     x1="12"
     y1="8"
     x2="12"
     y2="16"
     id="line16" />
  <line
     x1="8"
     y1="12"
     x2="16"
     y2="12"
     id="line18" />
  <path
     style="fill:#629924;fill-opacity:1;stroke-width:0.0551091"
     d="M 4.73938,19.946905 C 4.5601566,19.899267 4.3315416,19.750004 4.2261338,19.611808 4.1846807,19.55746 4.1223032,19.44381 4.0875173,19.359252 L 4.0242702,19.205511 V 12 4.7944891 L 4.0875173,4.640748 C 4.1719791,4.4354382 4.272149,4.3094428 4.4446667,4.1915197 4.7321868,3.9949876 4.1439011,4.0091848 12,4.0091848 c 7.856099,0 7.267813,-0.014197 7.555333,0.1823349 0.172518,0.1179231 0.272688,0.2439185 0.35715,0.4492283 l 0.06325,0.1537411 V 12 19.205511 l -0.06318,0.153582 c -0.08149,0.198093 -0.190859,0.3346 -0.362604,0.452593 -0.280732,0.192868 0.296938,0.179324 -7.562621,0.177316 -6.1342739,-0.0016 -7.116939,-0.0073 -7.247942,-0.0421 z m 7.672783,-3.024348 c 0.201069,-0.09205 0.410127,-0.292459 0.503636,-0.482794 l 0.07616,-0.155033 0.0077,-1.632606 0.0077,-1.632606 1.535328,-4.3e-4 c 1.654025,-4.63e-4 1.731324,-0.0062 1.968072,-0.144899 0.158038,-0.09262 0.342069,-0.293865 0.417015,-0.45603 0.08618,-0.186469 0.08618,-0.649847 0,-0.836317 -0.07495,-0.162165 -0.258977,-0.363414 -0.417015,-0.45603 -0.236748,-0.138744 -0.314047,-0.144435 -1.968072,-0.144899 l -1.535328,-4.31e-4 -0.0077,-1.632606 -0.0077,-1.6326062 -0.07616,-0.1550326 C 12.821681,7.3686608 12.613713,7.1701265 12.40555,7.0731329 12.271614,7.010726 12.210808,6.9997185 12,6.9997185 c -0.210808,0 -0.271614,0.011007 -0.40555,0.073414 -0.2078,0.096825 -0.406193,0.2862525 -0.505795,0.4829389 l -0.08062,0.159198 -0.0077,1.6326062 -0.0077,1.6326064 -1.5353284,4.3e-4 c -1.6540246,4.63e-4 -1.7313236,0.0062 -1.9680719,0.144899 -0.1580374,0.09262 -0.3420686,0.293865 -0.4170142,0.45603 -0.086178,0.186469 -0.086178,0.649847 0,0.836317 0.074946,0.162165 0.2589768,0.363414 0.4170142,0.45603 0.2367483,0.138744 0.3140473,0.144435 1.9680719,0.144899 l 1.5353284,4.3e-4 0.0077,1.632606 0.0077,1.632606 0.07763,0.15155 c 0.136173,0.265826 0.374083,0.464289 0.650615,0.54274 0.186614,0.05294 0.492775,0.02736 0.675878,-0.05646 z"
     id="path879" />
</svg>
