# Blender 3.4.1
# www.blender.org
mtllib untitled.mtl
o Cube
v 1.000000 1.000000 -1.000000
v 1.000000 -1.000000 -1.000000
v 1.000000 1.000000 1.000000
v 1.000000 -1.000000 1.000000
v -1.000000 1.000000 -1.000000
v -1.000000 -1.000000 -1.000000
v -1.000000 1.000000 1.000000
v -1.000000 -1.000000 1.000000
vn -0.0000 1.0000 -0.0000
vn -0.0000 -0.0000 1.0000
vn -1.0000 -0.0000 -0.0000
vn -0.0000 -1.0000 -0.0000
vn 1.0000 -0.0000 -0.0000
vn -0.0000 -0.0000 -1.0000
vt 4.898875 4.773875
vt 0.876977 0.753880
vt 0.004068 0.995551
vt 0.833431 0.002943
vt -1.580611 2.455611
vt 0.008724 0.001910
vt 4.898875 -3.523875
vt 1.000841 0.997448
vt 0.357991 0.817525
vt 0.998288 0.002988
vt -1.580611 -1.205611
vt 0.314445 0.066588
vt -3.398875 4.773875
vt -1.493296 2.127111
vt 0.994493 0.994167
vt 2.080611 2.455611
vt 0.993108 -0.000438
vt -1.502111 -1.868296
vt -3.398875 -3.523875
vt 0.001712 1.000000
vt 2.502111 2.118296
vt 2.493296 -1.877111
vt 0.000000 0.002334
vt 2.080611 -1.205611
s 0
usemtl Material
f 5/13/1 3/7/1 1/1/1
f 3/8/2 8/23/2 4/10/2
f 7/21/3 6/18/3 8/22/3
f 2/5/4 8/24/4 6/16/4
f 1/2/5 4/12/5 2/4/5
f 5/15/6 2/6/6 6/17/6
f 5/13/1 7/19/1 3/7/1
f 3/8/2 7/20/2 8/23/2
f 7/21/3 5/14/3 6/18/3
f 2/5/4 4/11/4 8/24/4
f 1/2/5 3/9/5 4/12/5
f 5/15/6 1/3/6 2/6/6
